<svg xmlns="http://www.w3.org/2000/svg" viewBox="0 0 128 128">
  <!-- Outer gear ring -->
  <path fill="#CE422B" d="M64 8C33.1 8 8 33.1 8 64s25.1 56 56 56 56-25.1 56-56S94.9 8 64 8zm0 4c28.7 0 52 23.3 52 52S92.7 116 64 116 12 92.7 12 64s23.3-52 52-52z"/>
  <!-- Gear teeth -->
  <path fill="#CE422B" d="M60 8h8v12h-8zM60 108h8v12h-8zM8 60v8h12v-8zM108 60v8h12v-8zM21.5 26.4l5.7-5.7 8.5 8.5-5.7 5.7zM92.3 97.1l5.7-5.7 8.5 8.5-5.7 5.7zM97.1 21.5l5.7 5.7-8.5 8.5-5.7-5.7zM26.4 92.3l5.7 5.7-8.5 8.5-5.7-5.7z"/>
  <!-- Inner gear -->
  <circle cx="64" cy="64" r="26" fill="#CE422B"/>
  <circle cx="64" cy="64" r="18" fill="#fff"/>
  <circle cx="64" cy="64" r="8" fill="#CE422B"/>
  <!-- Ferris the crab body hint -->
  <ellipse cx="64" cy="64" rx="18" ry="18" fill="none" stroke="#CE422B" stroke-width="3"/>
</svg>